<svg width="223" height="66" viewBox="0 0 223 66" fill="none" xmlns="http://www.w3.org/2000/svg">
<path fill-rule="evenodd" clip-rule="evenodd" d="M19 34L7.18919 38.6302V50.6688H0V66H7.18919H10.2703H27.7297H30.8108H38V50.6688H30.8108V38.6302L19 34ZM10.3636 50.807V40.8974L19 37.4909L27.6364 40.8974V50.807V63.0909H22.5561V55.246H15.4439V63.0909H10.3636V50.807ZM31.0909 63.0909H35.1212V53.7818H31.0909V63.0909ZM2.87879 63.0909H6.90909V53.7818H2.87879V63.0909Z" fill="#10403C"/>
<path fill-rule="evenodd" clip-rule="evenodd" d="M87.5 0L62.9459 9.54984V34.3794H48V66H62.9459H69.3514H105.649H112.054H127V34.3794H112.054V9.54984L87.5 0ZM69.5455 34.6645V14.2258L87.5 7.2L105.455 14.2258V34.6645V60H94.893V43.82H80.107V60H69.5455V34.6645ZM112.636 60H121.015V40.8H112.636V60ZM53.9848 60H62.3636V40.8H53.9848V60Z" fill="#10403C"/>
<path fill-rule="evenodd" clip-rule="evenodd" d="M156 34L144.189 38.6302V50.6688H137V66H144.189H147.27H164.73H167.811H175V50.6688H167.811V38.6302L156 34ZM147.364 50.807V40.8974L156 37.4909L164.636 40.8974V50.807V63.0909H159.556V55.246H152.444V63.0909H147.364V50.807ZM168.091 63.0909H172.121V53.7818H168.091V63.0909ZM139.879 63.0909H143.909V53.7818H139.879V63.0909Z" fill="#10403C"/>
<path fill-rule="evenodd" clip-rule="evenodd" d="M204 34L192.189 38.6302V50.6688H185V66H192.189H195.27H212.73H215.811H223V50.6688H215.811V38.6302L204 34ZM195.364 50.807V40.8974L204 37.4909L212.636 40.8974V50.807V63.0909H207.556V55.246H200.444V63.0909H195.364V50.807ZM216.091 63.0909H220.121V53.7818H216.091V63.0909ZM187.879 63.0909H191.909V53.7818H187.879V63.0909Z" fill="#10403C"/>
</svg>
