<svg width="201" height="66" viewBox="0 0 201 66" fill="none" xmlns="http://www.w3.org/2000/svg">
<path fill-rule="evenodd" clip-rule="evenodd" d="M39.5 0L14.9459 9.54984V34.3794H0V66H14.9459H21.3514H57.6487H64.0541H79V34.3794H64.0541V9.54984L39.5 0ZM21.5455 34.6645V14.2258L39.5 7.2L57.4545 14.2258V34.6645V60H46.893V43.82H32.107V60H21.5455V34.6645ZM64.6364 60H73.0152V40.8H64.6364V60ZM5.98485 60H14.3636V40.8H5.98485V60Z" fill="#0C2D4A"/>
<path fill-rule="evenodd" clip-rule="evenodd" d="M161.5 0L136.946 9.54984V34.3794H122V66H136.946H143.351H179.649H186.054H201V34.3794H186.054V9.54984L161.5 0ZM143.545 34.6645V14.2258L161.5 7.2L179.455 14.2258V34.6645V60H168.893V43.82H154.107V60H143.545V34.6645ZM186.636 60H195.015V40.8H186.636V60ZM127.985 60H136.364V40.8H127.985V60Z" fill="#0C2D4A"/>
<rect x="73" y="46" width="55" height="5" fill="#0C2D4A"/>
<circle cx="100.5" cy="48.5" r="5.5" fill="#BBD4EA" stroke="#0C2D4A" stroke-width="4"/>
</svg>
