<svg width="79" height="118" viewBox="0 0 79 118" fill="none" xmlns="http://www.w3.org/2000/svg">
<path d="M39.5246 1.23506e-05C44.3719 0.00487603 49.1088 1.44752 53.136 4.14538C57.1631 6.84325 60.2995 10.6751 62.1482 15.156C63.9969 19.6369 64.4748 24.5655 63.5215 29.3182C62.5683 34.0708 60.2266 38.4339 56.7929 41.8553C53.3591 45.2767 48.9877 47.6026 44.2316 48.5387C39.4756 49.4749 34.5487 48.9792 30.0745 47.1143C25.6002 45.2495 21.7797 42.0994 19.0964 38.0625C16.413 34.0257 14.9875 29.2836 15.0001 24.4363C15.017 17.9453 17.609 11.7263 22.2071 7.1447C26.8052 2.56313 33.0336 -0.00650061 39.5246 1.23506e-05ZM37.6528 18.62C36.1828 18.62 34.7373 18.62 33.282 18.62C32.964 18.6229 32.6477 18.6674 32.3412 18.7523C32.1585 18.7904 31.992 18.8837 31.864 19.0196C31.7361 19.1554 31.6529 19.3272 31.6258 19.5118C31.5756 19.7108 31.5973 19.9211 31.6869 20.1058C31.7765 20.2904 31.9284 20.4375 32.1158 20.5212C32.5866 20.7414 33.0925 20.8774 33.6103 20.923C34.9725 20.9867 35.5213 21.5845 35.3155 22.9859C34.9333 25.6074 34.4188 28.2093 33.9778 30.8259C33.6789 32.5899 33.429 34.3588 33.1399 36.1228C32.7528 38.4993 34.9676 40.7288 36.7267 41.0228C37.7687 41.1688 38.8203 41.236 39.8725 41.2237C40.9881 41.2223 42.0916 40.993 43.1154 40.5498C44.1392 40.1066 45.0616 39.4588 45.826 38.6463C46.1066 38.3877 46.3173 38.0624 46.4385 37.7006C46.4678 37.5442 46.4646 37.3835 46.4292 37.2284C46.3938 37.0733 46.3269 36.9272 46.2327 36.799C46.1191 36.7279 45.9908 36.6835 45.8576 36.669C45.7243 36.6546 45.5896 36.6706 45.4634 36.7157C45.0616 36.848 44.7039 37.1224 44.3119 37.2939C43.8537 37.5077 43.3741 37.6719 42.8811 37.7839C42.6846 37.8321 42.4801 37.8371 42.2815 37.7984C42.083 37.7598 41.8952 37.6784 41.7311 37.5601C41.5671 37.4417 41.4307 37.2891 41.3315 37.1129C41.2322 36.9366 41.1725 36.7409 41.1563 36.5393C41.0738 36.0834 41.059 35.6178 41.1122 35.1575C41.2788 34.0207 41.514 32.8937 41.7198 31.7667C42.2784 28.6928 42.8451 25.6172 43.4201 22.54C43.5769 21.6972 43.8415 20.8691 43.6651 19.9822C43.6515 19.7872 43.5992 19.5968 43.5112 19.4223C43.4232 19.2477 43.3012 19.0925 43.1525 18.9656C43.0037 18.8388 42.8311 18.7429 42.6449 18.6835C42.4586 18.6242 42.2624 18.6026 42.0677 18.62C40.5977 18.62 39.1228 18.62 37.6528 18.62ZM40.3184 7.72241C39.4351 7.68367 38.5603 7.90897 37.8056 8.36956C37.051 8.83014 36.4506 9.50513 36.0812 10.3084C35.7118 11.1116 35.5901 12.0067 35.7316 12.8795C35.8731 13.7522 36.2714 14.563 36.8757 15.2083C37.48 15.8537 38.2629 16.3044 39.1244 16.5029C39.986 16.7014 40.8872 16.6388 41.7129 16.3229C42.5387 16.0071 43.2517 15.4523 43.7608 14.7295C44.27 14.0067 44.5522 13.1486 44.5716 12.2647C44.6046 11.1007 44.176 9.97093 43.3792 9.1218C42.5824 8.27267 41.4821 7.77314 40.3184 7.73221V7.72241Z" fill="#282D30"/>
<rect width="5" height="9" transform="matrix(1 0 0 -1 37 55)" fill="#282D30"/>
<path fill-rule="evenodd" clip-rule="evenodd" d="M39.5 52L14.9459 61.5498V86.3794H0V118H14.9459H21.3514H57.6487H64.0541H79V86.3794H64.0541V61.5498L39.5 52ZM21.5455 86.6645V66.2258L39.5 59.2L57.4545 66.2258V86.6645V112H46.893V95.82H32.107V112H21.5455V86.6645ZM64.6364 112H73.0152V92.8H64.6364V112ZM5.98485 112H14.3636V92.8H5.98485V112Z" fill="#282D30"/>
</svg>
