<svg width="20" height="25" viewBox="0 0 20 25" fill="none" xmlns="http://www.w3.org/2000/svg">
<path d="M10 0C12.6522 0 15.1959 1.02742 17.0713 2.85645C18.9466 4.6854 19.9999 7.16642 20 9.75293C20 16.5879 13.9368 22.2402 11.2529 24.4072C10.8674 24.7185 10.6738 24.8734 10.3867 24.9531C10.1636 25.015 9.83534 25.015 9.6123 24.9531C9.32589 24.8735 9.13105 24.7173 8.74707 24.4072C6.06318 22.2402 0.000210766 16.5877 0 9.75293C0 7.1663 1.05334 4.68547 2.92871 2.85645C4.80404 1.02747 7.34789 4.46345e-05 10 0ZM9.99902 6.25C7.92812 6.2502 6.24902 7.92905 6.24902 10C6.24902 12.0709 7.92812 13.7498 9.99902 13.75C12.0701 13.75 13.749 12.0711 13.749 10C13.749 7.92893 12.0701 6.25 9.99902 6.25Z" fill="#003078"/>
</svg>
