<svg width="19" height="19" viewBox="0 0 19 19" fill="none" xmlns="http://www.w3.org/2000/svg">
<path d="M7.44824 0C11.5613 0.000189423 14.8955 3.33512 14.8955 7.44824C14.8954 9.10209 14.3554 10.6294 13.4434 11.8652L19 17.4229L18.2119 18.2119L17.4229 19L11.8652 13.4434C10.6294 14.3554 9.10209 14.8954 7.44824 14.8955C3.33512 14.8955 0.00018942 11.5613 0 7.44824C4.50011e-06 3.33501 3.33501 4.50026e-06 7.44824 0ZM7.44824 2.23145C4.56699 2.23145 2.23145 4.56699 2.23145 7.44824C2.23163 10.3293 4.56711 12.665 7.44824 12.665C10.3292 12.6648 12.6648 10.3292 12.665 7.44824C12.665 4.56711 10.3293 2.23163 7.44824 2.23145Z" fill="white"/>
</svg>
